<svg xmlns="http://www.w3.org/2000/svg" width="35.4" height="35.381" viewBox="0 0 35.4 35.381">
  <g id="Group_88" data-name="Group 88" transform="translate(-321.499 -194.064)">
    <path id="Path_1" data-name="Path 1" d="M459.335,321.892a5.923,5.923,0,0,0-2.057-4.915c-2.45-2.23-6.344-4.369-7.132-6.872a10.042,10.042,0,0,0,3.457,6.053C456.709,318.8,458.634,319.389,459.335,321.892Z" transform="translate(-115.694 -104.357)"/>
    <path id="Path_2" data-name="Path 2" d="M451.565,205.309s-.673-3.3,2.947-5.478,5.019-2.723,4.827-5.766h1.837a5.71,5.71,0,0,1-2.915,5.158C455.353,200.894,452.43,201.4,451.565,205.309Z" transform="translate(-116.925)"/>
    <g id="Group_4" data-name="Group 4" transform="translate(334.308 194.064)">
      <g id="Group_3" data-name="Group 3" transform="translate(0 0)">
        <rect id="Rectangle_19877" data-name="Rectangle 19877" width="9.29" height="0.385"/>
      </g>
    </g>
    <g id="Group_6" data-name="Group 6" transform="translate(334.308 195.132)">
      <g id="Group_5" data-name="Group 5" transform="translate(0 0)">
        <rect id="Rectangle_19878" data-name="Rectangle 19878" width="9.29" height="0.384"/>
      </g>
    </g>
    <g id="Group_7" data-name="Group 7" transform="translate(335.547 196.2)">
      <path id="Path_3" data-name="Path 3" d="M468.365,215.276h-7.344c.075.13.152.259.235.385h7C468.291,215.532,468.325,215.4,468.365,215.276Z" transform="translate(-461.021 -215.276)"/>
    </g>
    <g id="Group_9" data-name="Group 9" transform="translate(336.334 197.268)">
      <g id="Group_8" data-name="Group 8" transform="translate(0 0)">
        <path id="Path_4" data-name="Path 4" d="M475.1,226.013c.011-.044.021-.087.031-.131h-6.3c.042.043.085.086.13.126.063.057.324.255,0,.013a2.04,2.04,0,0,1,.275.246h5.789C475.054,226.183,475.08,226.1,475.1,226.013Z" transform="translate(-468.834 -225.882)"/>
      </g>
    </g>
    <path id="Path_5" data-name="Path 5" d="M332.744,324.132s-3.3-.673-5.478,2.947-2.723,5.019-5.766,4.827v1.837a5.71,5.71,0,0,0,5.158-2.915C328.329,327.919,328.835,325,332.744,324.132Z" transform="translate(0 -116.927)"/>
    <g id="Group_11" data-name="Group 11" transform="translate(321.499 207.364)">
      <g id="Group_10" data-name="Group 10" transform="translate(0 0)">
        <rect id="Rectangle_19879" data-name="Rectangle 19879" width="0.384" height="9.29"/>
      </g>
    </g>
    <g id="Group_13" data-name="Group 13" transform="translate(322.567 207.364)">
      <g id="Group_12" data-name="Group 12" transform="translate(0 0)">
        <rect id="Rectangle_19880" data-name="Rectangle 19880" width="0.384" height="9.29"/>
      </g>
    </g>
    <g id="Group_15" data-name="Group 15" transform="translate(323.635 208.072)">
      <g id="Group_14" data-name="Group 14" transform="translate(0 0)">
        <path id="Path_6" data-name="Path 6" d="M342.71,333.189v7.344c.13-.075.259-.153.385-.235v-7Q342.9,333.247,342.71,333.189Z" transform="translate(-342.71 -333.189)"/>
      </g>
    </g>
    <g id="Group_17" data-name="Group 17" transform="translate(324.703 208.331)">
      <g id="Group_16" data-name="Group 16" transform="translate(0 0)">
        <path id="Path_7" data-name="Path 7" d="M353.448,335.789l-.131-.031v6.3c.043-.042.086-.085.126-.13.057-.063.255-.324.013,0a2.037,2.037,0,0,1,.246-.275v-5.789C353.618,335.836,353.534,335.81,353.448,335.789Z" transform="translate(-353.317 -335.758)"/>
      </g>
    </g>
    <path id="Path_8" data-name="Path 8" d="M561.4,324.132s3.3-.673,5.478,2.947,2.723,5.019,5.766,4.827v1.837a5.71,5.71,0,0,1-5.158-2.915C565.814,327.919,565.308,325,561.4,324.132Z" transform="translate(-215.746 -116.927)"/>
    <g id="Group_19" data-name="Group 19" transform="translate(356.514 206.873)">
      <g id="Group_18" data-name="Group 18" transform="translate(0 0)">
        <rect id="Rectangle_19881" data-name="Rectangle 19881" width="0.384" height="9.29"/>
      </g>
    </g>
    <g id="Group_21" data-name="Group 21" transform="translate(355.446 206.873)">
      <g id="Group_20" data-name="Group 20" transform="translate(0 0)">
        <rect id="Rectangle_19882" data-name="Rectangle 19882" width="0.384" height="9.29"/>
      </g>
    </g>
    <g id="Group_23" data-name="Group 23" transform="translate(354.378 208.112)">
      <g id="Group_22" data-name="Group 22" transform="translate(0)">
        <path id="Path_9" data-name="Path 9" d="M648.434,340.931v-7.344c-.13.075-.259.152-.384.235v7C648.178,340.857,648.307,340.892,648.434,340.931Z" transform="translate(-648.05 -333.587)"/>
      </g>
    </g>
    <g id="Group_25" data-name="Group 25" transform="translate(353.31 208.899)">
      <g id="Group_24" data-name="Group 24" transform="translate(0 0)">
        <path id="Path_10" data-name="Path 10" d="M637.7,347.667l.131.031v-6.3c-.043.042-.086.085-.126.13-.057.063-.255.324-.013,0a2.044,2.044,0,0,1-.246.275v5.789C637.527,347.62,637.611,347.646,637.7,347.667Z" transform="translate(-637.443 -341.4)"/>
      </g>
    </g>
    <g id="Group_29" data-name="Group 29" transform="translate(329.523 205.478)">
      <g id="Group_26" data-name="Group 26" transform="translate(7.726)">
        <path id="Path_11" data-name="Path 11" d="M482.165,313.365a1.7,1.7,0,1,1,1.7-1.7,1.7,1.7,0,0,1-1.7,1.7Z" transform="translate(-480.212 -309.716)" fill="#f0e9ee"/>
        <path id="Path_12" data-name="Path 12" d="M479.875,307.938a1.441,1.441,0,1,1-1.44,1.441,1.441,1.441,0,0,1,1.44-1.441m0-.512a1.953,1.953,0,1,0,1.953,1.953,1.955,1.955,0,0,0-1.953-1.953Z" transform="translate(-477.922 -307.426)" fill="#f3e0ed"/>
      </g>
      <g id="Group_27" data-name="Group 27" transform="translate(0 3.574)">
        <path id="Path_13" data-name="Path 13" d="M411.685,345.551c-.063-.047-.1-.078-.741-.078-.323,0-.754.009-1.282.027a6.5,6.5,0,0,0-2.577.593,5.968,5.968,0,0,1-.819.3c-.518.132-1.174.241-1.808.346-.506.084-.984.163-1.385.252a11.022,11.022,0,0,0-1.213.356c.064.231.13.462.194.693.039.141.074.283.108.424a1.3,1.3,0,0,0,.75-.388,15.535,15.535,0,0,0,2.2.16,14.874,14.874,0,0,0,2.662-.242,1.611,1.611,0,0,1,.282-.026,1.21,1.21,0,0,1,1.277,1.194c0,.162,0,.418,0,.737-.011,1.586-.032,4.539.085,5.809.047.509.121,1.011.193,1.5a6.338,6.338,0,0,1,.119,2.2c-.164.5-.293.9-.08,1.2a.94.94,0,0,0,.784.28.927.927,0,0,0,.758-.267c.224-.271.151-.651.074-1.053l-.02-.1a7.029,7.029,0,0,1,.014-1.959c.015-.194.031-.411.049-.656.071-.975.08-1.648.087-2.241.005-.409.009-.763.033-1.142a1.569,1.569,0,0,1,.106-.56l.254.1v-7.369Z" transform="translate(-401.792 -345.217)" fill="#f3e0ed"/>
        <path id="Path_14" data-name="Path 14" d="M411.236,343.056c-.138-.1-.257-.129-.895-.129-.326,0-.76.009-1.291.027a6.808,6.808,0,0,0-2.667.612,5.645,5.645,0,0,1-.784.284c-.508.13-1.158.238-1.787.342-.51.084-.991.164-1.4.255a11.217,11.217,0,0,0-1.225.359c.044.165.091.33.137.5a10.792,10.792,0,0,1,1.2-.354c.9-.2,2.261-.36,3.2-.6a10.046,10.046,0,0,1,3.341-.88c.594-.02,1-.027,1.274-.027a2.338,2.338,0,0,1,.587.027v6.862a.094.094,0,0,0-.033-.005c-.079,0-.28.076-.327.825-.06.94,0,1.741-.12,3.381a10.192,10.192,0,0,0-.06,2.681c.12.64.26,1.12-.56,1.12s-.7-.4-.46-1.14-.16-2.281-.3-3.8-.08-5.582-.08-6.522a1.467,1.467,0,0,0-1.533-1.45,1.846,1.846,0,0,0-.328.03,14.554,14.554,0,0,1-2.617.238,15.2,15.2,0,0,1-2.3-.178,1.036,1.036,0,0,1-.709.413c.043.166.083.333.12.5a1.537,1.537,0,0,0,.781-.368,15.741,15.741,0,0,0,2.113.145,15.133,15.133,0,0,0,2.708-.246,1.343,1.343,0,0,1,.237-.022.96.96,0,0,1,1.02.938c0,.161,0,.415,0,.736-.011,1.59-.032,4.551.086,5.834.048.516.122,1.022.195,1.511a6.487,6.487,0,0,1,.128,2.085c-.171.528-.333,1.027-.043,1.425a1.164,1.164,0,0,0,.991.386,1.217,1.217,0,0,0,.955-.36,1.448,1.448,0,0,0,.128-1.265c-.007-.034-.013-.068-.02-.1a6.781,6.781,0,0,1,.018-1.893c.015-.195.031-.412.049-.656.072-.983.08-1.66.087-2.257,0-.406.009-.756.033-1.129.006-.094.014-.17.023-.231l.338.135V343.21Z" transform="translate(-401.189 -342.927)" fill="#f3e0ed"/>
      </g>
      <g id="Group_28" data-name="Group 28" transform="translate(9.207 3.574)">
        <path id="Path_15" data-name="Path 15" d="M505.365,347.44a11.7,11.7,0,0,0-1.479-.452c-.4-.089-.879-.168-1.385-.252-.634-.105-1.29-.214-1.808-.346a5.93,5.93,0,0,1-.819-.3,6.5,6.5,0,0,0-2.577-.592c-.528-.018-.959-.027-1.283-.027-.637,0-.678.031-.741.078l-.1.077V353l.254-.1a1.568,1.568,0,0,1,.106.56c.024.38.029.733.034,1.142.007.594.015,1.267.087,2.241.018.243.034.46.049.653a6.932,6.932,0,0,1,.015,1.961l-.02.1c-.077.4-.15.782.074,1.053a.926.926,0,0,0,.758.267.94.94,0,0,0,.784-.28c.213-.293.084-.691-.079-1.2a6.329,6.329,0,0,1,.119-2.2c.072-.486.146-.988.193-1.5.117-1.27.1-4.223.085-5.809,0-.319,0-.575,0-.737a1.21,1.21,0,0,1,1.276-1.194,1.6,1.6,0,0,1,.282.026,14.874,14.874,0,0,0,2.663.242,15.478,15.478,0,0,0,2.2-.16,1.3,1.3,0,0,0,.895.4l.146.006.294.011Q505.37,347.965,505.365,347.44Z" transform="translate(-494.916 -345.218)" fill="#f2e0ed"/>
        <path id="Path_16" data-name="Path 16" d="M503.088,345.943l-.425-.016a1.036,1.036,0,0,1-.8-.42,15.2,15.2,0,0,1-2.3.178,14.548,14.548,0,0,1-2.617-.238,1.852,1.852,0,0,0-.328-.03,1.467,1.467,0,0,0-1.533,1.45c0,.94.06,5-.08,6.522s-.54,3.061-.3,3.8.36,1.14-.46,1.14-.68-.48-.56-1.12a10.184,10.184,0,0,0-.06-2.681c-.12-1.641-.06-2.441-.12-3.381-.048-.749-.248-.825-.327-.825a.1.1,0,0,0-.033.005v-6.862a2.337,2.337,0,0,1,.587-.027c.276,0,.68.007,1.274.027a10.045,10.045,0,0,1,3.341.88c.94.24,2.3.4,3.2.6a11.711,11.711,0,0,1,1.537.478q0-.274,0-.549a11.724,11.724,0,0,0-1.422-.43c-.407-.09-.889-.17-1.4-.255-.629-.1-1.279-.212-1.787-.342a5.66,5.66,0,0,1-.784-.284,6.8,6.8,0,0,0-2.667-.612c-.531-.018-.965-.027-1.291-.027-.637,0-.757.026-.895.129l-.2.154v7.875l.338-.135c.009.062.017.138.023.231.024.373.028.723.033,1.129.007.6.015,1.275.087,2.257.018.244.034.461.049.656a6.774,6.774,0,0,1,.018,1.893l-.02.1a1.447,1.447,0,0,0,.128,1.265,1.217,1.217,0,0,0,.955.36,1.164,1.164,0,0,0,.991-.386c.29-.4.128-.9-.043-1.425a6.488,6.488,0,0,1,.128-2.085c.072-.489.147-1,.195-1.511.118-1.283.1-4.243.086-5.834,0-.321,0-.574,0-.735a.96.96,0,0,1,1.02-.938,1.342,1.342,0,0,1,.237.022,15.136,15.136,0,0,0,2.708.246,15.735,15.735,0,0,0,2.113-.145,1.538,1.538,0,0,0,.973.387l.145.006.312.012Q503.093,346.2,503.088,345.943Z" transform="translate(-492.627 -342.927)" fill="#f2e0ed"/>
      </g>
    </g>
    <g id="Group_34" data-name="Group 34" transform="translate(328.393 205.991)">
      <g id="Group_33" data-name="Group 33" transform="translate(0 0)">
        <g id="Group_30" data-name="Group 30" transform="translate(9.368)">
          <path id="Path_17" data-name="Path 17" d="M485.895,313.957a1.44,1.44,0,1,1-1.44-1.441A1.44,1.44,0,0,1,485.895,313.957Z" transform="translate(-483.014 -312.516)"/>
        </g>
        <g id="Group_31" data-name="Group 31" transform="translate(0 3.575)">
          <path id="Path_18" data-name="Path 18" d="M392.116,350.086a1.037,1.037,0,0,1-.8.42c-.54.02-1.621.08-1.28-.12a11.23,11.23,0,0,1,2.4-.86c.9-.2,2.261-.36,3.2-.6a10.045,10.045,0,0,1,3.341-.88,9.376,9.376,0,0,1,1.861,0v6.862s-.3-.12-.36.82,0,1.741-.12,3.381a10.19,10.19,0,0,0-.06,2.681c.12.64.26,1.12-.56,1.12s-.7-.4-.46-1.14-.16-2.281-.3-3.8-.08-5.582-.08-6.522a1.5,1.5,0,0,0-1.861-1.421A14.686,14.686,0,0,1,392.116,350.086Z" transform="translate(-389.97 -348.019)"/>
        </g>
        <g id="Group_32" data-name="Group 32" transform="translate(10.849 3.575)">
          <path id="Path_19" data-name="Path 19" d="M506.44,350.086a1.036,1.036,0,0,0,.8.42c.54.02,1.62.08,1.28-.12a11.229,11.229,0,0,0-2.4-.86c-.9-.2-2.261-.36-3.2-.6a10.045,10.045,0,0,0-3.341-.88,9.378,9.378,0,0,0-1.861,0v6.862s.3-.12.36.82,0,1.741.12,3.381a10.185,10.185,0,0,1,.06,2.681c-.12.64-.26,1.12.56,1.12s.7-.4.46-1.14.16-2.281.3-3.8.08-5.582.08-6.522a1.5,1.5,0,0,1,1.861-1.421A14.685,14.685,0,0,0,506.44,350.086Z" transform="translate(-497.717 -348.019)"/>
        </g>
      </g>
    </g>
    <path id="Path_20" data-name="Path 20" d="M456.387,310.957a9.533,9.533,0,0,1-3.457,5.819c-3.106,2.538-5.032,3.107-5.732,5.513a5.567,5.567,0,0,1,2.056-4.726c2.45-2.144,6.345-4.2,7.132-6.607m-.454-.148c-.5,1.53-2.511,3-4.456,4.429-.874.64-1.777,1.3-2.537,1.967a6.011,6.011,0,0,0-2.214,5.157l.931.061c.447-1.538,1.451-2.25,3.113-3.43.719-.511,1.535-1.089,2.462-1.847a9.946,9.946,0,0,0,3.63-6.139l-.929-.2Z" transform="translate(-112.592 -104.99)" fill="#f3e0ed"/>
    <path id="Path_21" data-name="Path 21" d="M451.473,323.616a5.567,5.567,0,0,1,2.056-4.726c2.45-2.144,6.345-4.2,7.132-6.607A9.533,9.533,0,0,1,457.2,318.1C454.1,320.641,452.173,321.21,451.473,323.616Z" transform="translate(-116.866 -106.317)"/>
    <path id="Path_22" data-name="Path 22" d="M456.677,205.309s.673-3.3-2.947-5.478-5.019-2.723-4.827-5.766h-1.837a5.71,5.71,0,0,0,2.915,5.158C452.89,200.894,455.813,201.4,456.677,205.309Z" transform="translate(-112.919)"/>
    <path id="Path_23" data-name="Path 23" d="M451.565,433.785s-.673,3.3,2.947,5.478,5.019,2.723,4.827,5.767h1.837a5.71,5.71,0,0,0-2.915-5.158C455.353,438.2,452.43,437.693,451.565,433.785Z" transform="translate(-116.925 -215.584)"/>
    <g id="Group_36" data-name="Group 36" transform="translate(334.799 227.993)">
      <g id="Group_35" data-name="Group 35">
        <rect id="Rectangle_19883" data-name="Rectangle 19883" width="9.29" height="0.385"/>
      </g>
    </g>
    <g id="Group_38" data-name="Group 38" transform="translate(335.507 226.925)">
      <g id="Group_37" data-name="Group 37" transform="translate(0 0)">
        <path id="Path_24" data-name="Path 24" d="M460.621,520.818h7.344c-.075-.13-.152-.259-.235-.384h-7Q460.679,520.627,460.621,520.818Z" transform="translate(-460.621 -520.434)"/>
      </g>
    </g>
    <g id="Group_40" data-name="Group 40" transform="translate(335.765 225.857)">
      <g id="Group_39" data-name="Group 39">
        <path id="Path_25" data-name="Path 25" d="M463.22,510.079c-.011.044-.021.087-.031.131h6.3c-.042-.043-.085-.086-.13-.126-.063-.057-.324-.255,0-.013a2.044,2.044,0,0,1-.275-.246h-5.789C463.267,509.91,463.242,509.994,463.22,510.079Z" transform="translate(-463.189 -509.826)"/>
      </g>
    </g>
    <path id="Path_26" data-name="Path 26" d="M456.677,433.785s.673,3.3-2.947,5.478-5.019,2.723-4.827,5.767h-1.837a5.71,5.71,0,0,1,2.915-5.158C452.889,438.2,455.812,437.693,456.677,433.785Z" transform="translate(-112.919 -215.584)"/>
    <path id="Path_27" data-name="Path 27" d="M561.4,329.244s3.3.673,5.478-2.947,2.723-5.019,5.766-4.827v-1.837a5.71,5.71,0,0,0-5.158,2.915C565.814,325.457,565.308,328.379,561.4,329.244Z" transform="translate(-215.746 -112.921)"/>
    <path id="Path_28" data-name="Path 28" d="M332.744,329.244s-3.3.673-5.478-2.947-2.723-5.019-5.766-4.827v-1.837a5.71,5.71,0,0,1,5.158,2.915C328.329,325.456,328.835,328.379,332.744,329.244Z" transform="translate(0 -112.921)"/>
  </g>
</svg>
