<svg xmlns="http://www.w3.org/2000/svg" width="26.094" height="25.387" viewBox="0 0 26.094 25.387">
  <g id="delivery-svgrepo-com_1_" data-name="delivery-svgrepo-com (1)" transform="translate(0)">
    <path id="Path_48960" data-name="Path 48960" d="M9.78,11.083l.726,2.626c.684,2.476,1.026,3.714,2.032,4.277s2.282.231,4.835-.432l2.708-.7c2.553-.663,3.83-1,4.41-1.971s.239-2.213-.446-4.689l-.726-2.626c-.684-2.476-1.026-3.714-2.032-4.277s-2.282-.231-4.835.432l-2.708.7c-2.553.663-3.829,1-4.41,1.971S9.1,8.606,9.78,11.083Z" transform="translate(0.537 -3)" fill="#525252"/>
    <path id="Path_48961" data-name="Path 48961" d="M2.289,5.473a1.058,1.058,0,0,1,1.3-.737l2.4.667A3.818,3.818,0,0,1,8.668,8.051L11.7,19.033l.223.771a4.176,4.176,0,0,1,2.147,1.787l.437-.135L27.02,18.2a1.058,1.058,0,1,1,.532,2.048L15.087,23.492l-.464.143a4.1,4.1,0,0,1-3.118,3.916,4.22,4.22,0,0,1-5.15-2.884,4.067,4.067,0,0,1,2.973-5q.167-.043.334-.073L6.628,8.614a1.7,1.7,0,0,0-1.2-1.173l-2.4-.667A1.058,1.058,0,0,1,2.289,5.473Z" transform="translate(-2.25 -2.303)" fill="#525252"/>
  </g>
</svg>
