<svg id="Community-Driven_Approach" data-name="Community-Driven Approach" xmlns="http://www.w3.org/2000/svg" width="37.272" height="35.694" viewBox="0 0 37.272 35.694">
  <g id="user-svgrepo-com_5_" data-name="user-svgrepo-com (5)" transform="translate(19.589 5.596)" opacity="0.61">
    <ellipse id="Ellipse_3404" data-name="Ellipse 3404" cx="4.635" cy="4.326" rx="4.635" ry="4.326" transform="translate(4.326 0)" fill="#fff"/>
    <path id="Path_49281" data-name="Path 49281" d="M21.683,17.973c0,2.747,0,4.973-8.842,4.973S4,20.72,4,17.973,7.959,13,12.842,13,21.683,15.227,21.683,17.973Z" transform="translate(-4 -0.981)" fill="#fff"/>
  </g>
  <path id="Path_49287" data-name="Path 49287" d="M150.833,362.848s8.354,5.656,4.394,16.576-11.791-3.133-11.791-3.133V364.371Z" transform="translate(-125.741 -347.886)" fill="#4299c0"/>
  <g id="user-svgrepo-com_5_2" data-name="user-svgrepo-com (5)" transform="translate(0 0)">
    <ellipse id="Ellipse_3404-2" data-name="Ellipse 3404" cx="6.997" cy="6.53" rx="6.997" ry="6.53" transform="translate(6.53 0)" fill="#fff"/>
    <path id="Path_49281-2" data-name="Path 49281" d="M30.694,20.508c0,4.146,0,7.508-13.347,7.508S4,24.654,4,20.508,9.976,13,17.347,13,30.694,16.361,30.694,20.508Z" transform="translate(-4 5.143)" fill="#fff"/>
  </g>
</svg>
