<svg xmlns="http://www.w3.org/2000/svg" width="20.285" height="35.581" viewBox="0 0 20.285 35.581">
  <g id="dollar_2" data-name="dollar 2" transform="translate(-5.315 -0.545)">
    <line id="Line_2232" data-name="Line 2232" y2="4.586" transform="translate(12.395 1.5)" fill="none" stroke="#020202" stroke-linecap="square" stroke-miterlimit="10" stroke-width="1.91"/>
    <line id="Line_2233" data-name="Line 2233" y2="4.586" transform="translate(12.395 30.586)" fill="none" stroke="#020202" stroke-linecap="square" stroke-miterlimit="10" stroke-width="1.91"/>
    <line id="Line_2234" data-name="Line 2234" y2="4.586" transform="translate(18.52 1.5)" fill="none" stroke="#020202" stroke-linecap="square" stroke-miterlimit="10" stroke-width="1.91"/>
    <line id="Line_2235" data-name="Line 2235" y2="4.586" transform="translate(18.52 30.586)" fill="none" stroke="#020202" stroke-linecap="square" stroke-miterlimit="10" stroke-width="1.91"/>
    <path id="Path_49158" data-name="Path 49158" d="M6.27,24.258h0a4.6,4.6,0,0,0,4.6,4.6H18.52a6.125,6.125,0,0,0,6.125-6.125h0A6.125,6.125,0,0,0,18.52,16.61H12.395A6.125,6.125,0,0,1,6.27,10.485h0A6.125,6.125,0,0,1,12.395,4.36h7.648a4.6,4.6,0,0,1,4.6,4.6h0" transform="translate(0 1.726)" fill="none" stroke="#020202" stroke-linecap="square" stroke-miterlimit="10" stroke-width="1.91"/>
  </g>
</svg>
