<svg xmlns="http://www.w3.org/2000/svg" width="26.975" height="22.907" viewBox="0 0 26.975 22.907">
  <path id="XMLID_31_" d="M-322.772,184.349a6.778,6.778,0,0,0-6.264-2.858h0a6.749,6.749,0,0,0-3.159,1.182l-13.442,9.369a6.771,6.771,0,0,0-1.676,9.423,6.778,6.778,0,0,0,6.264,2.858,6.749,6.749,0,0,0,3.159-1.182l13.431-9.369A6.764,6.764,0,0,0-322.772,184.349Zm-21.758,10.884a4.748,4.748,0,0,0-2.009,3.084,3.947,3.947,0,0,1,.333-3.03c.86-1.622,4.481-3.954,4.481-3.954l.784,1C-340.931,192.322-342.575,193.643-344.531,195.233Zm18.922-3.127-5.888,4.1a11.677,11.677,0,0,0-1.687-4.319A7.644,7.644,0,0,0-337,188.486l5.963-4.158a4.771,4.771,0,0,1,2.214-.827,4.769,4.769,0,0,1,4.395,2A4.751,4.751,0,0,1-325.609,192.107Z" transform="translate(348.531 -181.454)" fill="#525252"/>
</svg>
