<svg xmlns="http://www.w3.org/2000/svg" width="37.775" height="30.52" viewBox="0 0 37.775 30.52">
  <g id="eye-svgrepo-com" transform="translate(-1.25 -3.25)">
    <path id="Path_80" data-name="Path 80" d="M4.312,24.488c-1.542-2-2.312-3-2.312-5.978s.771-3.975,2.312-5.978C7.39,8.534,12.553,4,20.138,4s12.747,4.534,15.825,8.533c1.542,2,2.312,3,2.312,5.978s-.771,3.975-2.312,5.978c-3.078,4-8.24,8.533-15.825,8.533S7.39,28.487,4.312,24.488Z" fill="none" stroke="#fff" stroke-width="1.5" opacity="0.74"/>
    <path id="Path_81" data-name="Path 81" d="M19.883,14.441A5.441,5.441,0,1,1,14.441,9,5.441,5.441,0,0,1,19.883,14.441Z" transform="translate(5.696 4.069)" fill="none" stroke="#fff" stroke-width="1.5"/>
    <circle id="Ellipse_2" data-name="Ellipse 2" cx="5" cy="5" r="5" transform="translate(15.138 13.51)" fill="#fff"/>
  </g>
</svg>
