<svg xmlns="http://www.w3.org/2000/svg" width="17.662" height="17.662" viewBox="0 0 17.662 17.662">
  <path id="globe" d="M18.962,10.481a8.481,8.481,0,1,0-8.481,8.481A8.481,8.481,0,0,0,18.962,10.481Zm-1.756-.848H14.721a10.949,10.949,0,0,0-1.976-5.547,6.785,6.785,0,0,1,4.461,5.547ZM8,11.329h5.021a9.7,9.7,0,0,1-2.544,5.606A9.329,9.329,0,0,1,8,11.329Zm0-1.7a9.668,9.668,0,0,1,2.476-5.6,9.49,9.49,0,0,1,2.544,5.6ZM8.31,4.061A11.178,11.178,0,0,0,6.3,9.633H3.756A6.785,6.785,0,0,1,8.31,4.061ZM3.756,11.329H6.3a10.907,10.907,0,0,0,1.993,5.564A6.785,6.785,0,0,1,3.756,11.329ZM12.7,16.884a11.144,11.144,0,0,0,2.018-5.555h2.5A6.785,6.785,0,0,1,12.7,16.884Z" transform="translate(-1.65 -1.65)" stroke="#f7fafe" stroke-width="0.7"/>
</svg>
