<svg id="layer1" xmlns="http://www.w3.org/2000/svg" width="32.794" height="32.783" viewBox="0 0 32.794 32.783">
  <path id="path726" d="M1.371,5.82a1.366,1.366,0,1,0,0,2.733H31.421a1.366,1.366,0,1,0,0-2.733Z" transform="translate(0.001 24.23)" fill="#fff"/>
  <path id="path728" d="M3.806,3.969A3.3,3.3,0,0,0,.529,7.246V14.9A1.366,1.366,0,0,0,1.9,16.261H7.366A1.366,1.366,0,0,0,8.727,14.9V7.246A3.3,3.3,0,0,0,5.45,3.969Z" transform="translate(2.204 16.522)" fill="#fff"/>
  <path id="path730" d="M5.659,3.069A3.3,3.3,0,0,0,2.382,6.346v12.3A1.366,1.366,0,0,0,3.743,20.01H9.209a1.366,1.366,0,0,0,1.361-1.361V6.346A3.3,3.3,0,0,0,7.293,3.069Z" transform="translate(9.921 12.773)" fill="#fff"/>
  <path id="path732" d="M7.511,2.276A3.3,3.3,0,0,0,4.234,5.553v16.4a1.366,1.366,0,0,0,1.361,1.361h5.466a1.366,1.366,0,0,0,1.371-1.361V5.553A3.308,3.308,0,0,0,9.145,2.276Z" transform="translate(17.629 9.472)" fill="#fff"/>
  <path id="path734" d="M23.853,0a1.366,1.366,0,0,0,0,2.732h1.411C17.538,9.375,9.449,13.5,1.113,15.046a1.369,1.369,0,0,0,.494,2.692c8.975-1.663,17.611-6.123,25.715-13.156V6.19a1.366,1.366,0,1,0,2.732,0V2.167A2.2,2.2,0,0,0,27.876,0Z" transform="translate(0.007 0)" fill="#fff"/>
</svg>
