<svg id="paper-plane_6_" data-name="paper-plane (6)" xmlns="http://www.w3.org/2000/svg" width="15.559" height="14.911" viewBox="0 0 15.559 14.911">
  <path id="Path_29425" data-name="Path 29425" d="M8.75,17.612v3.007a.486.486,0,0,0,.878.288l1.759-2.394Z" transform="translate(-3.077 -6.194)"/>
  <path id="Path_29426" data-name="Path 29426" d="M15.355.09a.486.486,0,0,0-.507-.035L.261,7.673a.486.486,0,0,0,.067.891L4.384,9.95,13.02,2.566,6.337,10.617l6.8,2.323a.5.5,0,0,0,.157.026.486.486,0,0,0,.481-.414L15.554.558a.487.487,0,0,0-.2-.468Z" transform="translate(0 0)"/>
</svg>
