<svg xmlns="http://www.w3.org/2000/svg" width="14.751" height="14.782" viewBox="0 0 14.751 14.782">
  <g id="Group_38470" data-name="Group 38470" transform="translate(0 0)">
    <path id="Path_29424" data-name="Path 29424" d="M14.9,10.848,12.84,8.785a1.372,1.372,0,0,0-2.284.516,1.4,1.4,0,0,1-1.621.884A6.361,6.361,0,0,1,5.1,6.354a1.335,1.335,0,0,1,.884-1.621A1.372,1.372,0,0,0,6.5,2.45L4.442.387a1.471,1.471,0,0,0-1.989,0l-1.4,1.4c-1.4,1.473.147,5.378,3.61,8.841s7.367,5.083,8.841,3.61l1.4-1.4A1.471,1.471,0,0,0,14.9,10.848Z" transform="translate(-0.539 0)"/>
  </g>
</svg>
