<svg xmlns="http://www.w3.org/2000/svg" width="26.975" height="26.975" viewBox="0 0 26.975 26.975">
  <path id="question-circle-Filled" d="M15.488,2A13.488,13.488,0,1,0,28.975,15.488,13.488,13.488,0,0,0,15.488,2Zm0,21.58a1.349,1.349,0,1,1,1.349-1.349A1.349,1.349,0,0,1,15.488,23.58Zm2.751-6.312c-1.241.823-1.443,1.268-1.47,1.349a1.349,1.349,0,0,1-1.281.917,1.6,1.6,0,0,1-.432-.067,1.369,1.369,0,0,1-.85-1.713,6.184,6.184,0,0,1,2.536-2.738,2.522,2.522,0,0,0,1.4-2.725,2.737,2.737,0,0,0-2.158-2.158,2.7,2.7,0,0,0-3.2,2.657,1.349,1.349,0,1,1-2.7,0A5.4,5.4,0,0,1,20.8,11.819,5.268,5.268,0,0,1,18.239,17.268Z" transform="translate(-2 -2)" fill="#525252"/>
</svg>
