<svg id="ranking-1-svgrepo-com" xmlns="http://www.w3.org/2000/svg" width="33.32" height="34.497" viewBox="0 0 33.32 34.497">
  <path id="Path_49288" data-name="Path 49288" d="M9.78,14H5.332A3.342,3.342,0,0,0,2,17.332v8.33a1.671,1.671,0,0,0,1.666,1.666H9.78a1.671,1.671,0,0,0,1.666-1.666v-10A1.671,1.671,0,0,0,9.78,14Z" transform="translate(-2 7.17)" fill="#fff"/>
  <path id="Path_49289" data-name="Path 49289" d="M16.44,10H11.992A3.342,3.342,0,0,0,8.66,13.332V28.326a1.671,1.671,0,0,0,1.666,1.666h7.78a1.671,1.671,0,0,0,1.666-1.666V13.332A3.331,3.331,0,0,0,16.44,10Z" transform="translate(2.436 4.506)" fill="#fff"/>
  <path id="Path_49290" data-name="Path 49290" d="M22.444,17H18a1.671,1.671,0,0,0-1.666,1.666v5A1.671,1.671,0,0,0,18,25.33H24.11a1.671,1.671,0,0,0,1.666-1.666V20.332A3.342,3.342,0,0,0,22.444,17Z" transform="translate(7.544 9.168)" fill="#fff"/>
  <path id="Path_49291" data-name="Path 49291" d="M19.261,7.22a1.682,1.682,0,0,0,.55-1.666A1.643,1.643,0,0,0,18.4,4.521l-1.6-.267a.449.449,0,0,1-.25-.183l-.883-1.766a1.508,1.508,0,0,0-2.849,0l-.883,1.766a.368.368,0,0,1-.233.183l-1.6.267A1.665,1.665,0,0,0,8.682,5.554a1.682,1.682,0,0,0,.55,1.666l1.233,1.249a.451.451,0,0,1,.1.317l-.35,1.533c-.267,1.15.167,1.666.45,1.866a1.657,1.657,0,0,0,1.916-.133l1.5-.883a.427.427,0,0,1,.35,0l1.483.883a2.205,2.205,0,0,0,1.15.367,1.326,1.326,0,0,0,.75-.233c.283-.2.716-.716.45-1.866l-.35-1.533a.427.427,0,0,1,.1-.317Z" transform="translate(2.412 -1.293)" fill="#fff"/>
</svg>
