<svg id="star-svgrepo-com_2_" data-name="star-svgrepo-com (2)" xmlns="http://www.w3.org/2000/svg" width="18.401" height="18.401" viewBox="0 0 18.401 18.401">
  <path id="Path_46222" data-name="Path 46222" d="M17.166,15.993A7.827,7.827,0,0,1,7.629,7.081a1.169,1.169,0,0,1-.1.089A3.145,3.145,0,0,1,6.3,7.584l-.585.132c-2.263.512-3.395.768-3.664,1.634s.5,1.768,2.045,3.572l.4.467a3.386,3.386,0,0,1,.756,1.086,3.532,3.532,0,0,1,0,1.343l-.06.623c-.233,2.407-.35,3.611.355,4.146s1.764.047,3.883-.928l.548-.252A3.138,3.138,0,0,1,11.2,18.99a3.138,3.138,0,0,1,1.222.416l.548.252c2.119.976,3.178,1.463,3.883.928s.588-1.739.355-4.146Z" transform="translate(-2 -2.406)" fill="#fdd61a"/>
  <path id="Path_46223" data-name="Path 46223" d="M9.061,5.136l-.3.541A3.376,3.376,0,0,1,8,6.764a1.17,1.17,0,0,0,.1-.089,7.828,7.828,0,0,0,9.537,8.912l-.017-.175a3.531,3.531,0,0,1,0-1.343,3.386,3.386,0,0,1,.756-1.086l.4-.467c1.543-1.8,2.314-2.706,2.045-3.572s-1.4-1.122-3.664-1.634l-.585-.132a3.145,3.145,0,0,1-1.223-.414A3.375,3.375,0,0,1,14.6,5.677l-.3-.541C13.134,3.045,12.551,2,11.68,2S10.226,3.045,9.061,5.136Z" transform="translate(-2.48 -2)" fill="#fdd61a"/>
</svg>
