<svg xmlns="http://www.w3.org/2000/svg" width="34.957" height="27.944" viewBox="0 0 34.957 27.944">
  <g id="Delivery_Truck" data-name="Delivery Truck" transform="translate(-1.96 -3.965)">
    <g id="Group_57499" data-name="Group 57499" transform="translate(2.06 4.065)">
      <path id="Path_49159" data-name="Path 49159" d="M36,16.513l-1.8-2.5a4.371,4.371,0,0,0-3.549-1.836H22.988V8.436a4.371,4.371,0,0,0-4.371-4.371H6.431A4.383,4.383,0,0,0,2.06,8.436V25.815a2.623,2.623,0,0,0,2.623,2.623H6.816a3.92,3.92,0,0,0,7.763,0H24.3a3.92,3.92,0,0,0,7.763,0h2.133a2.623,2.623,0,0,0,2.623-2.623V19.048A4.385,4.385,0,0,0,36,16.513ZM10.7,30.063a2.185,2.185,0,1,1,2.185-2.185A2.185,2.185,0,0,1,10.7,30.063ZM21.24,26.689H14.456a3.946,3.946,0,0,0-7.518,0H4.683a.874.874,0,0,1-.874-.874V8.436A2.623,2.623,0,0,1,6.431,5.813H18.617A2.623,2.623,0,0,1,21.24,8.436Zm6.941,3.374a2.185,2.185,0,1,1,2.185-2.185A2.185,2.185,0,0,1,28.18,30.063Zm6.889-4.249a.874.874,0,0,1-.874.874H31.939a3.946,3.946,0,0,0-7.518,0H22.988V13.926h7.658a2.651,2.651,0,0,1,2.133,1.1l1.8,2.5a2.67,2.67,0,0,1,.49,1.521Z" transform="translate(-2.06 -4.065)" stroke="#000" stroke-width="0.2"/>
      <path id="Path_49160" data-name="Path 49160" d="M19.9,12.953H16.4a.874.874,0,0,1,0-1.748h3.5a.874.874,0,0,1,0,1.748Z" transform="translate(8.02 1.278)" stroke="#000" stroke-width="0.2"/>
    </g>
  </g>
</svg>
