<svg xmlns="http://www.w3.org/2000/svg" width="36.175" height="36.175" viewBox="0 0 36.175 36.175">
  <path id="verified-check-svgrepo-com" d="M17.3,2.568a5.807,5.807,0,0,1,5.008,0A10.855,10.855,0,0,1,24.5,4.179l.138.118a8.439,8.439,0,0,0,.692.563,3.127,3.127,0,0,0,1.135.47,8.475,8.475,0,0,0,.888.092l.181.014a10.852,10.852,0,0,1,2.689.41,5.806,5.806,0,0,1,3.541,3.541,10.858,10.858,0,0,1,.41,2.689c0,.059.009.12.014.181a8.475,8.475,0,0,0,.092.888,3.125,3.125,0,0,0,.47,1.135,8.5,8.5,0,0,0,.563.692l.118.138A10.851,10.851,0,0,1,37.043,17.3a5.807,5.807,0,0,1,0,5.008A10.855,10.855,0,0,1,35.432,24.5l-.118.138a8.471,8.471,0,0,0-.563.692,3.125,3.125,0,0,0-.47,1.135,8.472,8.472,0,0,0-.092.888c0,.061-.01.121-.014.181a10.857,10.857,0,0,1-.41,2.689,5.806,5.806,0,0,1-3.541,3.541,10.857,10.857,0,0,1-2.689.41l-.181.014a8.472,8.472,0,0,0-.888.092,3.125,3.125,0,0,0-1.135.47,8.471,8.471,0,0,0-.692.563l-.138.118a10.855,10.855,0,0,1-2.191,1.611,5.807,5.807,0,0,1-5.008,0,10.852,10.852,0,0,1-2.191-1.611l-.138-.118a8.508,8.508,0,0,0-.692-.563,3.125,3.125,0,0,0-1.135-.47,8.475,8.475,0,0,0-.888-.092l-.181-.014a10.858,10.858,0,0,1-2.689-.41,5.806,5.806,0,0,1-3.541-3.541,10.852,10.852,0,0,1-.41-2.689l-.014-.181a8.475,8.475,0,0,0-.092-.888,3.127,3.127,0,0,0-.47-1.135,8.439,8.439,0,0,0-.563-.692L4.179,24.5a10.85,10.85,0,0,1-1.611-2.191,5.807,5.807,0,0,1,0-5.008A10.852,10.852,0,0,1,4.179,15.11l.118-.138a8.475,8.475,0,0,0,.563-.692,3.127,3.127,0,0,0,.47-1.135,8.478,8.478,0,0,0,.092-.888l.014-.181a10.852,10.852,0,0,1,.41-2.689A5.807,5.807,0,0,1,9.387,5.846a10.852,10.852,0,0,1,2.689-.41l.181-.014a8.478,8.478,0,0,0,.888-.092,3.127,3.127,0,0,0,1.135-.47,8.475,8.475,0,0,0,.692-.563l.138-.118A10.852,10.852,0,0,1,17.3,2.568Zm3.853,2.418a3.127,3.127,0,0,0-2.7,0,9.907,9.907,0,0,0-1.747,1.35l-.052.044a9.889,9.889,0,0,1-.887.7,5.807,5.807,0,0,1-2.108.873,9.866,9.866,0,0,1-1.125.128l-.068.005a9.9,9.9,0,0,0-2.19.28A3.127,3.127,0,0,0,8.373,10.28a9.9,9.9,0,0,0-.28,2.19l-.005.068a9.866,9.866,0,0,1-.128,1.125,5.807,5.807,0,0,1-.873,2.108,9.886,9.886,0,0,1-.7.887l-.044.052a9.907,9.907,0,0,0-1.35,1.747,3.127,3.127,0,0,0,0,2.7A9.907,9.907,0,0,0,6.336,22.9l.044.052a9.888,9.888,0,0,1,.7.887,5.808,5.808,0,0,1,.873,2.108,9.864,9.864,0,0,1,.128,1.125l.005.068a9.9,9.9,0,0,0,.28,2.19,3.127,3.127,0,0,0,1.907,1.907,9.89,9.89,0,0,0,2.19.28l.068.006a9.848,9.848,0,0,1,1.125.128,5.808,5.808,0,0,1,2.108.873,9.889,9.889,0,0,1,.887.7l.052.044a9.9,9.9,0,0,0,1.747,1.351,3.127,3.127,0,0,0,2.7,0A9.9,9.9,0,0,0,22.9,33.274l.052-.044a9.864,9.864,0,0,1,.887-.7,5.809,5.809,0,0,1,2.108-.873,9.848,9.848,0,0,1,1.125-.128l.068-.006a9.889,9.889,0,0,0,2.19-.28,3.127,3.127,0,0,0,1.907-1.907,9.889,9.889,0,0,0,.28-2.19l.006-.068a9.848,9.848,0,0,1,.128-1.125,5.809,5.809,0,0,1,.873-2.108,9.864,9.864,0,0,1,.7-.887l.044-.052a9.9,9.9,0,0,0,1.351-1.747,3.127,3.127,0,0,0,0-2.7,9.9,9.9,0,0,0-1.351-1.747l-.044-.052a9.867,9.867,0,0,1-.7-.887,5.808,5.808,0,0,1-.873-2.108,9.849,9.849,0,0,1-.128-1.125l-.006-.068a9.89,9.89,0,0,0-.28-2.19,3.127,3.127,0,0,0-1.907-1.907,9.9,9.9,0,0,0-2.19-.28l-.068-.005a9.864,9.864,0,0,1-1.125-.128,5.808,5.808,0,0,1-2.108-.873,9.886,9.886,0,0,1-.887-.7L22.9,6.336A9.907,9.907,0,0,0,21.154,4.986Zm5.853,9.405a1.34,1.34,0,0,1,0,1.9L18.073,25.22a1.34,1.34,0,0,1-1.9,0L12.6,21.646a1.34,1.34,0,1,1,1.9-1.9l2.626,2.626,7.986-7.986A1.34,1.34,0,0,1,27.006,14.391Z" transform="translate(-1.718 -1.718)" fill="#1c274c" stroke="#fff" stroke-width="0.5" fill-rule="evenodd"/>
</svg>
